<?xml version="1.0" standalone="no"?>
<!DOCTYPE svg PUBLIC "-//W3C//DTD SVG 20010904//EN"
 "http://www.w3.org/TR/2001/REC-SVG-20010904/DTD/svg10.dtd">
<svg version="1.0" xmlns="http://www.w3.org/2000/svg"
 width="7730.000000pt" height="7730.000000pt" viewBox="0 0 7730.000000 7730.000000"
 preserveAspectRatio="xMidYMid meet">
<metadata>
Created by potrace 1.16, written by Peter Selinger 2001-2019
</metadata>
<g transform="translate(0.000000,7730.000000) scale(0.100000,-0.100000)"
fill="#000000" stroke="none">
<path d="M15545 57401 c-82 -21 -146 -73 -183 -146 -19 -39 -21 -65 -26 -505
-7 -636 -34 -1156 -91 -1785 -3 -33 -8 -82 -10 -110 -3 -27 -12 -120 -20 -205
-9 -85 -18 -182 -21 -215 -9 -102 -64 -577 -89 -770 -9 -66 -22 -174 -31 -240
-24 -189 -91 -653 -140 -970 -192 -1238 -417 -2414 -764 -3990 -54 -247 -105
-481 -112 -520 l-14 -70 -128 193 c-1015 1532 -2340 2845 -3908 3875 -473 311
-930 573 -1428 819 -192 95 -210 102 -276 106 -56 3 -81 0 -115 -15 -61 -28
-109 -70 -130 -118 -31 -67 -25 -111 32 -231 303 -647 521 -1548 773 -3199 31
-198 125 -853 211 -1455 369 -2590 560 -3727 861 -5112 733 -3381 1813 -6138
3276 -8364 l119 -182 -21 -278 c-90 -1247 -126 -2560 -117 -4264 7 -1211 21
-1819 68 -2995 32 -827 46 -1064 69 -1174 78 -383 296 -688 653 -916 14 -9 35
-614 181 -5185 91 -2846 168 -5222 171 -5280 63 -1167 570 -2234 1431 -3014
614 -556 1396 -936 2206 -1070 267 -45 424 -57 798 -62 356 -5 30329 -181
31645 -186 771 -3 804 -1 1111 63 387 80 776 242 1100 458 198 132 290 207
468 381 356 349 614 753 771 1211 93 270 127 448 235 1229 314 2267 519 4547
605 6720 33 850 40 1202 39 2260 0 982 -5 1301 -30 1961 l-7 165 69 49 c250
179 440 478 499 789 8 43 15 94 16 114 l1 37 9 -35 c18 -70 276 -1955 409
-2985 439 -3410 715 -6356 780 -8320 21 -659 17 -620 76 -679 46 -46 99 -63
244 -81 160 -20 693 -29 840 -14 155 16 318 46 345 63 63 42 61 26 100 711
165 2942 248 5702 248 8270 1 1599 -27 2856 -83 3785 -23 387 -42 675 -44 678
-2 1 -1062 144 -2357 317 -1295 173 -2417 324 -2494 334 -77 11 -277 38 -445
60 -168 23 -336 45 -375 51 -38 5 -965 129 -2060 275 -1094 146 -2494 333
-3110 416 -616 82 -1591 212 -2167 289 -753 101 -1071 147 -1133 165 -174 51
-314 134 -446 265 -154 152 -249 326 -295 535 -37 176 -43 126 289 2771 169
1342 313 2499 322 2570 8 71 17 147 20 169 45 346 465 3732 465 3751 0 23 -12
31 -113 79 -331 156 -757 269 -1247 333 l-135 17 0 1504 0 1504 100 22 c165
37 296 107 413 219 101 96 176 211 216 330 73 216 156 996 156 1467 0 350 -36
780 -85 1027 -88 437 -334 850 -676 1137 -294 246 -674 416 -1050 470 -346 49
-3285 59 -4629 15 -765 -25 -938 -31 -1280 -45 -1995 -83 -3777 -233 -5410
-456 -295 -40 -411 -58 -980 -150 -1285 -208 -2403 -464 -3407 -780 -398 -125
-847 -285 -1018 -364 -327 -150 -602 -419 -769 -751 -86 -173 -140 -362 -195
-689 -76 -448 -74 -943 5 -1345 31 -160 65 -253 124 -343 77 -118 172 -202
300 -267 119 -60 217 -80 392 -80 l148 0 0 -1204 0 -1204 -62 -6 c-35 -3 -164
-15 -288 -27 -383 -34 -895 -104 -1010 -136 -145 -41 -298 -143 -392 -261
-107 -135 -108 -138 -137 -457 l-26 -280 -935 -7 c-1125 -8 -3260 -26 -4186
-35 l-671 -6 191 384 c419 841 754 1641 1030 2458 l86 254 0 5272 0 5273 -91
269 c-622 1832 -1518 3581 -2628 5128 -161 226 -350 475 -380 503 -59 55 -170
83 -246 63z m14794 -11827 c29 -36 26 -70 -7 -103 -27 -27 -29 -28 -197 -35
-1029 -42 -2471 -312 -4040 -757 -262 -74 -306 -90 -429 -152 -251 -128 -458
-337 -581 -591 -141 -290 -217 -794 -200 -1330 7 -217 6 -218 -16 -242 -43
-46 -118 -22 -136 44 -5 15 -8 171 -8 347 1 241 5 357 18 468 42 351 103 597
193 781 161 326 435 584 764 719 193 79 1037 307 1730 467 1028 237 2120 399
2762 408 126 2 127 2 147 -24z m10941 -5093 l0 -1470 -52 -5 c-29 -3 -114 -11
-188 -17 -373 -29 -1010 -114 -1125 -150 -185 -57 -356 -190 -450 -350 -44
-75 -48 -96 -76 -417 -13 -138 -26 -256 -29 -262 -4 -6 -254 -6 -695 0 -2111
29 -5499 50 -8057 50 -1712 0 -1807 1 -1812 18 -2 9 -21 132 -41 272 -42 293
-26 261 -180 357 -198 124 -466 240 -731 317 -231 67 -604 139 -836 162 l-68
7 0 1243 0 1244 33 0 c17 0 1591 52 3497 115 1906 63 4230 140 5165 170 935
31 2551 85 3590 119 1040 35 1927 64 1973 65 l82 1 0 -1469z m-12062 -4007
c26 -18 28 -37 6 -58 -12 -13 -41 -16 -148 -16 -144 0 -161 6 -154 52 3 21 9
23 78 29 148 11 195 10 218 -7z m792 -4 c14 -22 12 -36 -6 -54 -12 -13 -41
-16 -148 -16 -136 0 -156 5 -156 41 0 10 7 25 16 34 14 14 37 16 151 13 105
-2 136 -6 143 -18z m-4699 0 c11 -6 19 -21 19 -35 0 -37 -28 -45 -164 -45
-100 0 -128 3 -140 16 -22 21 -20 40 6 58 17 12 50 16 141 16 65 0 127 -5 138
-10z m789 -4 c6 -8 10 -25 8 -38 -3 -23 -5 -23 -147 -26 -144 -3 -171 3 -171
34 0 7 7 20 16 28 22 22 275 23 294 2z m785 -26 l0 -35 -150 0 c-149 0 -150 0
-153 23 -8 51 -4 53 155 50 l148 -3 0 -35z m783 6 c2 -16 -2 -32 -10 -37 -15
-10 -258 -12 -282 -3 -16 6 -22 54 -9 68 4 3 72 5 152 4 l146 -3 3 -29z m780
22 c16 -16 15 -33 -4 -52 -12 -13 -41 -16 -148 -16 -89 0 -136 4 -144 12 -13
13 -16 50 -5 61 12 13 288 8 301 -5z m2348 -13 c12 -49 -5 -55 -157 -55 -139
0 -140 0 -151 25 -22 48 -2 55 158 55 l144 0 6 -25z m780 0 c12 -49 -5 -55
-157 -55 -139 0 -140 0 -151 25 -22 48 -2 55 158 55 l144 0 6 -25z m778 3 c8
-13 8 -23 0 -35 -10 -16 -31 -18 -152 -21 -133 -2 -142 -1 -152 18 -8 14 -8
26 0 40 10 19 19 20 152 18 121 -3 142 -5 152 -20z m776 8 c6 -8 10 -25 8 -38
-3 -23 -4 -23 -153 -23 l-150 0 -3 29 c-2 16 2 32 10 37 7 5 72 9 144 9 103 0
134 -3 144 -14z m755 5 c21 -4 31 -13 33 -29 7 -46 -10 -52 -152 -52 -139 0
-156 5 -156 45 0 39 18 45 135 44 60 -1 124 -4 140 -8z m-10131 -17 c19 -19
20 -38 3 -52 -20 -17 -258 -27 -285 -13 -27 14 -29 56 -4 70 9 6 74 11 144 11
102 0 130 -3 142 -16z m790 -6 c8 -13 8 -23 0 -35 -10 -16 -30 -18 -149 -21
-141 -3 -165 3 -165 37 0 37 20 42 164 39 119 -3 140 -5 150 -20z m10156 2 c8
-14 8 -26 0 -40 -10 -19 -21 -20 -148 -20 -141 0 -162 5 -162 40 0 35 21 40
162 40 127 0 138 -1 148 -20z m772 3 c22 -20 23 -37 2 -57 -12 -13 -40 -16
-140 -16 -134 0 -164 8 -164 43 0 42 16 47 154 47 106 0 133 -3 148 -17z
m-13284 -2 c8 -5 12 -21 10 -37 l-3 -29 -130 -8 c-144 -9 -175 -2 -175 36 0
42 16 47 155 47 71 0 136 -4 143 -9z m790 -3 c16 -16 15 -33 -4 -52 -12 -13
-41 -16 -148 -16 -89 0 -136 4 -144 12 -13 13 -16 50 -5 61 12 13 288 8 301
-5z m13286 -10 c8 -13 8 -23 0 -35 -10 -16 -30 -18 -149 -21 -141 -3 -165 3
-165 37 0 37 20 42 164 39 119 -3 140 -5 150 -20z m-15636 0 c18 -18 14 -56
-7 -68 -11 -5 -76 -10 -145 -10 -100 0 -128 3 -140 16 -20 20 -20 33 1 56 14
16 33 18 148 18 88 0 135 -4 143 -12z m790 -19 c5 -44 -14 -50 -164 -47 -137
3 -139 3 -142 26 -8 51 -4 53 155 50 l148 -3 3 -26z m15626 9 c8 -13 8 -23 0
-35 -10 -16 -30 -18 -149 -21 -141 -3 -165 3 -165 37 0 37 20 42 164 39 119
-3 140 -5 150 -20z m709 15 c60 -5 68 -8 73 -30 12 -46 -7 -53 -152 -53 -107
0 -136 3 -148 16 -9 8 -16 22 -16 29 0 44 71 55 243 38z m-17899 -25 c8 -13 8
-23 0 -35 -10 -16 -31 -18 -151 -21 -117 -2 -142 0 -153 13 -10 12 -10 21 -2
41 l12 25 141 -3 c122 -3 143 -5 153 -20z m18737 12 c21 -12 25 -50 7 -68 -19
-19 -257 -16 -286 4 -26 18 -28 37 -6 58 12 13 40 16 140 16 69 0 134 -5 145
-10z m-20307 -16 c9 -8 16 -22 16 -29 0 -7 -7 -21 -16 -29 -12 -13 -41 -16
-148 -16 -144 0 -161 6 -154 52 3 20 11 24 53 29 28 3 91 7 142 7 71 2 95 -1
107 -14z m790 -6 c8 -13 8 -23 0 -35 -10 -16 -30 -18 -149 -21 -141 -3 -165 3
-165 37 0 37 20 42 164 39 119 -3 140 -5 150 -20z m20290 12 c28 -10 35 -47
14 -68 -15 -15 -251 -17 -279 -2 -21 12 -25 50 -7 68 15 15 235 17 272 2z
m-21860 -16 c19 -19 20 -25 3 -48 -11 -15 -34 -19 -145 -24 -142 -5 -162 0
-162 44 0 13 8 28 18 33 9 6 74 11 144 11 102 0 130 -3 142 -16z m22658 0 c15
-9 9 -62 -8 -68 -9 -3 -73 -6 -143 -6 -133 0 -151 5 -151 45 0 44 16 48 160
40 73 -3 138 -9 142 -11z m-23437 -34 l0 -35 -135 -6 c-144 -7 -170 -2 -170
34 0 44 15 48 165 45 l140 -3 0 -35z m-785 16 c6 -8 10 -25 8 -38 -3 -23 -5
-23 -148 -26 -127 -2 -146 -1 -157 15 -17 22 -16 28 3 47 22 22 275 23 294 2z
m25010 -6 c8 -14 8 -26 0 -40 -10 -19 -21 -20 -148 -20 -94 0 -142 4 -150 12
-13 13 -16 50 -5 61 3 4 71 7 149 7 133 0 144 -1 154 -20z m-25784 -15 c8 -32
-11 -55 -45 -55 -42 0 -59 -20 -73 -84 -14 -65 -36 -88 -65 -70 -14 9 -18 24
-16 73 3 102 56 161 145 161 43 0 48 -3 54 -25z m26556 8 c23 -21 23 -36 -1
-57 -17 -15 -34 -16 -147 -10 -131 7 -154 13 -154 43 0 35 21 41 154 41 106 0
133 -3 148 -17z m786 -15 c6 -6 12 -18 12 -27 0 -36 -21 -41 -160 -41 -92 0
-140 4 -148 12 -17 17 -15 55 4 66 21 11 275 2 292 -10z m778 -19 c8 -6 14
-19 14 -28 0 -34 -22 -41 -129 -41 -146 0 -180 7 -187 36 -4 14 0 31 7 41 12
14 31 15 147 10 78 -4 140 -11 148 -18z m732 -5 c44 -6 53 -10 58 -31 4 -13 0
-30 -7 -40 -12 -14 -31 -15 -147 -10 -78 4 -140 11 -148 18 -17 14 -18 41 -2
57 13 13 156 16 246 6z m-29070 -687 c3 -38 -23 -242 -34 -258 -8 -14 -50 -10
-64 6 -10 12 -9 41 5 142 9 71 22 134 28 141 6 7 22 12 36 10 22 -3 26 -9 29
-41z m-98 -741 c9 -12 9 -42 0 -133 -14 -149 -16 -159 -36 -167 -23 -9 -52 2
-58 22 -9 27 20 260 34 277 16 19 44 19 60 1z m-71 -784 c9 -17 -1 -213 -14
-269 -6 -27 -41 -39 -62 -22 -13 12 -15 32 -9 143 4 72 12 138 17 148 13 23
56 23 68 0z m-65 -768 c18 -7 21 -68 9 -212 -5 -75 -9 -85 -29 -94 -18 -8 -28
-8 -40 3 -15 12 -16 30 -10 148 7 154 17 175 70 155z m-40 -780 c24 -9 24
-275 0 -298 -20 -20 -38 -20 -58 0 -14 13 -15 35 -10 147 8 153 16 171 68 151z
m-19 -788 c17 -12 18 -24 11 -147 -7 -134 -14 -159 -46 -159 -37 0 -42 24 -38
165 2 107 6 138 18 145 21 13 33 12 55 -4z m-16 -780 c8 -9 11 -58 9 -151 -3
-119 -5 -139 -20 -149 -13 -8 -23 -8 -35 0 -16 10 -18 31 -21 150 -2 122 0
140 15 151 22 17 38 16 52 -1z m-5 -782 c13 -12 16 -41 16 -148 0 -140 -5
-156 -47 -156 -35 0 -43 29 -43 157 0 91 4 124 16 141 18 26 37 28 58 6z m11
-930 c0 -148 0 -149 -23 -152 -47 -7 -52 10 -52 159 0 119 2 139 17 147 9 6
26 7 37 2 20 -7 21 -15 21 -156z m9 -646 c12 -60 16 -261 5 -274 -14 -17 -51
-18 -67 -2 -13 13 -18 252 -6 282 4 10 18 16 35 16 22 0 30 -5 33 -22z m13
-770 c15 -19 24 -273 10 -287 -15 -15 -50 -14 -65 1 -13 13 -18 279 -5 291 11
12 50 8 60 -5z m34 -798 c4 -14 7 -80 8 -147 1 -111 -1 -123 -18 -133 -24 -12
-49 -4 -55 18 -2 10 -7 72 -11 140 -7 135 -2 155 44 150 17 -2 27 -11 32 -28z
m39208 -194 c8 -9 11 -59 9 -152 l-3 -139 -31 -3 c-21 -2 -33 2 -37 12 -9 22
-11 271 -3 285 10 15 51 14 65 -3z m-39181 -573 c5 -10 12 -76 15 -146 4 -104
2 -130 -10 -142 -19 -20 -37 -19 -55 3 -18 20 -32 258 -16 285 12 22 55 22 66
0z m39190 -205 c13 -13 17 -265 4 -284 -11 -17 -35 -22 -54 -12 -16 8 -18 26
-18 152 0 78 3 146 7 149 11 11 48 8 61 -5z m-38798 -353 c68 -14 129 -30 137
-36 18 -15 17 -44 -3 -60 -13 -10 -36 -9 -137 11 -67 12 -130 27 -139 32 -21
10 -24 48 -6 66 15 15 5 16 148 -13z m755 -150 c140 -25 155 -31 155 -66 0
-18 -6 -32 -16 -36 -23 -9 -264 38 -280 55 -8 7 -14 20 -14 27 0 21 30 46 49
41 9 -3 57 -12 106 -21z m790 -156 c61 -12 116 -27 124 -35 16 -14 8 -59 -11
-66 -18 -7 -260 41 -275 54 -14 11 -18 50 -6 61 11 12 53 8 168 -14z m37145
-39 c22 -42 0 -55 -141 -83 -124 -25 -134 -26 -151 -10 -45 40 -17 63 114 89
144 29 165 29 178 4z m-36382 -114 c63 -13 121 -30 129 -39 17 -17 10 -52 -12
-61 -8 -3 -73 7 -145 21 -140 28 -162 41 -140 83 13 25 28 25 168 -4z m35606
-22 c18 -17 20 -32 7 -53 -8 -13 -217 -60 -268 -61 -12 0 -27 9 -33 20 -16 30
4 58 48 66 20 4 78 15 127 25 50 9 93 18 97 18 4 1 14 -6 22 -15z m-34845
-129 c68 -14 127 -27 132 -30 14 -9 11 -51 -6 -65 -12 -10 -32 -9 -103 4 -184
37 -182 36 -188 62 -7 26 10 54 31 54 7 0 67 -11 134 -25z m15899 -13 l974 -2
-2 -27 c-1 -16 -1 -57 0 -93 1 -55 3 -61 11 -40 6 14 9 42 7 63 -2 26 0 37 10
37 7 0 10 -5 7 -10 -4 -6 -3 -45 1 -88 l8 -77 8 60 c5 33 7 73 5 88 l-4 28 61
-3 61 -4 0 -99 1 -98 28 -2 c27 -1 53 25 39 39 -3 3 -1 6 5 6 7 0 12 -9 12
-19 0 -11 5 -23 10 -26 6 -3 10 -16 10 -28 0 -20 0 -20 -15 -1 -21 27 -31 7
-27 -56 5 -59 25 -64 30 -7 3 32 6 36 21 27 11 -5 21 -26 25 -50 8 -51 26 -43
26 11 0 24 4 38 10 34 13 -8 7 -102 -8 -117 -9 -9 -16 -8 -29 5 -17 15 -18 10
-21 -101 -9 -390 -10 -802 -2 -802 5 0 11 26 13 58 l4 57 -1 -65 c0 -63 1 -65
27 -68 l27 -3 2 -192 c2 -106 2 -221 0 -257 -3 -69 8 -183 15 -162 3 7 23 12
49 12 l44 0 1 -207 c1 -213 13 -421 19 -333 2 25 2 55 1 66 -1 20 4 22 64 23
50 1 65 -2 65 -13 0 -9 -15 -15 -45 -18 -25 -2 -45 1 -45 6 0 6 -3 6 -9 0 -4
-5 -5 -31 -1 -59 l7 -50 2 43 1 42 41 0 c27 0 46 6 54 17 17 23 27 -128 25
-397 -4 -455 0 -574 16 -595 12 -16 18 -17 33 -8 28 17 31 2 32 -150 0 -73 4
-154 8 -182 8 -54 7 -63 24 160 2 22 4 -15 5 -82 2 -119 3 -123 23 -123 l22 0
-7 -209 c-4 -114 -4 -263 0 -330 6 -109 9 -121 25 -121 17 0 19 -9 21 -72 1
-48 3 -59 5 -30 4 42 4 42 44 42 l39 0 0 -155 0 -155 -42 -2 -43 -1 43 -4 42
-4 0 -250 0 -249 -40 0 c-24 0 -41 5 -42 13 0 6 -4 -10 -8 -38 l-7 -50 -2 50
c-1 46 -3 49 -16 31 -17 -22 -21 -121 -6 -130 5 -4 12 0 15 6 3 10 9 8 19 -4
11 -14 30 -18 91 -18 44 0 76 -4 76 -10 0 -5 22 -10 48 -10 45 0 49 -2 65 -35
11 -22 18 -65 19 -113 l2 -77 6 100 6 100 3 -100 c1 -59 6 -92 10 -80 7 17 9
18 17 2 8 -15 35 -17 219 -20 116 -1 -717 -2 -1850 -2 -2245 1 -2084 -3 -2249
54 -320 112 -572 391 -646 716 -11 50 -124 954 -251 2010 -206 1720 -230 1931
-225 2025 21 429 315 797 731 915 157 44 -11 41 2103 37z m18180 -4 c16 -16
15 -43 -2 -57 -23 -19 -258 -61 -278 -50 -21 11 -24 54 -5 66 14 9 209 50 248
52 14 0 30 -4 37 -11z m-33303 -138 c61 -12 116 -27 123 -32 17 -14 15 -43 -4
-59 -13 -10 -36 -9 -137 11 -67 12 -130 27 -139 32 -37 19 -13 84 27 74 11 -2
70 -14 130 -26z m32526 0 c21 -12 26 -52 7 -68 -7 -5 -70 -20 -140 -32 -134
-25 -158 -22 -158 20 0 30 23 40 146 64 66 13 120 24 122 25 2 0 12 -4 23 -9z
m-31765 -150 c55 -11 106 -23 116 -26 43 -13 26 -74 -21 -74 -26 0 -203 33
-243 46 -23 7 -33 41 -18 59 17 20 49 19 166 -5z m31008 -6 c19 -19 20 -25 4
-47 -9 -12 -54 -25 -143 -42 -71 -14 -131 -25 -132 -25 -7 0 -33 34 -33 43 1
30 25 41 132 63 140 27 153 28 172 8z m-30253 -144 c134 -27 149 -33 149 -64
0 -43 -25 -46 -159 -20 -67 13 -129 28 -137 35 -28 23 -10 69 27 69 9 0 63 -9
120 -20z m29489 -5 c15 -18 5 -52 -18 -59 -32 -10 -227 -46 -249 -46 -29 0
-47 33 -34 59 8 14 36 24 113 39 126 25 172 27 188 7z m-28712 -149 c128 -27
152 -41 134 -81 -6 -14 -18 -25 -25 -25 -8 0 -70 11 -138 25 -126 26 -154 40
-142 73 14 38 22 39 171 8z m27940 12 c16 -16 15 -43 -3 -58 -25 -20 -265 -62
-281 -49 -17 14 -18 55 -1 66 13 8 219 51 253 52 11 1 25 -4 32 -11z m-27148
-171 l105 -22 3 -32 c3 -25 -1 -33 -18 -38 -28 -9 -259 35 -277 53 -17 18 -17
37 3 57 17 17 12 17 184 -18z m26388 2 c2 -14 -3 -30 -10 -36 -19 -15 -252
-58 -272 -50 -22 9 -32 36 -19 56 12 20 189 60 253 58 40 -2 45 -5 48 -28z
m-784 -115 c18 -7 22 -59 6 -69 -7 -5 -252 -55 -266 -55 -8 0 -34 33 -34 43 1
29 24 40 131 62 130 26 141 27 163 19z m-24859 -34 c119 -24 138 -33 133 -63
-6 -40 -30 -43 -160 -18 -68 13 -129 28 -135 34 -32 24 -2 83 37 72 8 -2 65
-13 125 -25z m24105 -125 c10 -11 10 -22 3 -38 -9 -20 -27 -26 -131 -45 -147
-27 -159 -27 -172 -2 -21 39 1 54 112 76 127 27 172 29 188 9z m-23331 -29
c130 -27 157 -49 113 -89 -17 -16 -27 -15 -151 10 -141 28 -163 41 -141 83 14
26 36 25 179 -4z m22559 -108 c14 -14 15 -37 4 -56 -5 -6 -68 -24 -141 -38
-143 -27 -161 -25 -161 22 0 31 8 35 135 60 133 26 148 27 163 12z m-21817
-38 c133 -26 149 -33 149 -64 0 -47 -18 -50 -156 -22 -70 14 -133 31 -140 37
-28 23 -9 69 27 69 9 0 63 -9 120 -20z m21057 -131 c2 -14 -3 -31 -10 -36 -23
-19 -257 -58 -276 -46 -22 13 -27 47 -10 61 18 15 204 51 253 49 35 -2 40 -5
43 -28z m-20288 -24 c68 -14 129 -30 137 -36 18 -15 17 -44 -3 -60 -13 -10
-36 -9 -137 11 -67 12 -130 27 -139 32 -21 10 -24 48 -6 66 15 15 5 16 148
-13z m-10039 -42 c19 -22 26 -267 9 -288 -15 -18 -44 -19 -58 -2 -5 6 -13 71
-17 143 -7 115 -5 132 10 147 21 21 39 22 56 0z m29547 -55 c20 -20 14 -58
-10 -67 -13 -5 -76 -19 -140 -32 -124 -23 -148 -19 -148 20 0 33 20 42 136 65
144 29 147 29 162 14z m-18752 -52 c66 -14 127 -27 136 -31 41 -16 26 -75 -20
-75 -53 1 -255 48 -263 61 -13 21 -11 36 7 53 19 19 -1 20 140 -8z m17994
-101 c9 -11 10 -22 3 -38 -9 -19 -28 -26 -125 -45 -63 -12 -126 -22 -140 -22
-54 0 -62 63 -10 77 164 42 253 51 272 28z m-17205 -56 c61 -12 116 -26 123
-32 18 -14 15 -55 -5 -65 -23 -12 -262 33 -282 53 -9 8 -11 23 -7 39 8 33 25
33 171 5z m16426 -79 c20 -11 25 -36 11 -58 -5 -7 -68 -24 -141 -38 -105 -21
-135 -23 -146 -14 -18 15 -20 56 -3 66 9 6 213 49 251 53 5 1 17 -4 28 -9z
m10733 -12 c13 -17 16 -51 16 -148 0 -129 -6 -150 -41 -150 -32 0 -40 27 -46
157 -5 113 -4 131 11 146 23 23 42 21 60 -5z m-26390 -62 c111 -22 135 -33
136 -63 0 -21 -32 -45 -54 -39 -12 2 -72 15 -134 27 -121 24 -144 38 -122 79
13 25 28 25 174 -4z m14900 -88 c22 -35 -4 -52 -120 -76 -60 -12 -125 -21
-144 -20 -29 3 -35 7 -38 29 -2 14 3 31 10 36 17 14 203 52 247 50 20 -1 38
-9 45 -19z m-14145 -63 c68 -14 127 -27 132 -30 14 -9 11 -51 -6 -65 -12 -10
-38 -8 -133 10 -125 24 -162 40 -162 68 0 20 18 42 36 42 6 0 66 -11 133 -25z
m13369 -67 c18 -18 15 -56 -5 -66 -10 -5 -73 -20 -141 -32 -129 -23 -152 -20
-152 20 0 30 27 43 143 65 137 28 140 28 155 13z m-12614 -83 c72 -14 136 -31
143 -37 18 -14 16 -43 -3 -59 -13 -10 -36 -9 -137 11 -141 26 -157 33 -157 63
0 17 16 48 25 47 0 0 58 -11 129 -25z m-13842 -57 c12 -10 17 -41 21 -143 3
-76 1 -138 -4 -148 -13 -23 -56 -22 -69 2 -15 28 -13 274 2 289 15 15 30 15
50 0z m25698 -18 c22 -41 -1 -56 -123 -79 -135 -25 -161 -26 -177 -6 -15 18
-4 52 20 60 37 12 205 43 237 44 23 1 35 -5 43 -19z m-11074 -80 c129 -27 132
-28 139 -51 9 -27 -11 -49 -45 -49 -26 0 -203 33 -242 46 -23 7 -33 41 -18 59
17 20 49 19 166 -5z m10298 -56 c18 -17 20 -32 7 -53 -10 -16 -246 -64 -278
-56 -17 4 -23 13 -23 35 0 16 5 32 10 35 9 6 227 51 257 54 6 1 19 -6 27 -15z
m-766 -146 c16 -16 15 -43 -1 -57 -18 -14 -221 -53 -261 -49 -24 2 -32 8 -34
27 -2 13 1 28 7 35 12 11 204 54 252 55 14 1 30 -4 37 -11z m14569 -50 c12
-15 25 -244 16 -277 -7 -25 -47 -38 -68 -21 -22 19 -22 272 1 294 19 19 38 20
51 4z m-38701 -432 c17 -13 19 -30 23 -145 3 -137 -3 -161 -39 -161 -31 0 -38
23 -45 156 -6 115 -5 133 10 147 20 21 26 21 51 3z m38695 -346 c17 -10 19
-23 19 -149 0 -149 -5 -166 -52 -159 -23 3 -23 5 -26 148 -2 127 -1 146 15
157 20 16 20 16 44 3z m-38668 -434 c18 -19 32 -273 16 -293 -17 -19 -57 -16
-69 6 -5 11 -10 78 -10 150 0 113 2 131 18 140 23 14 28 13 45 -3z m38667
-361 c9 -11 10 -46 4 -146 -7 -109 -12 -134 -26 -143 -13 -8 -23 -8 -35 0 -15
10 -18 30 -21 138 -1 76 2 134 8 146 13 24 52 26 70 5z m-38628 -453 c5 -18 7
-85 6 -150 -3 -114 -4 -117 -26 -120 -43 -6 -49 11 -57 149 -8 142 -2 162 44
157 19 -2 27 -11 33 -36z m38606 -412 c1 -52 -1 -120 -5 -150 -7 -47 -12 -55
-31 -58 -49 -7 -55 11 -48 148 9 160 10 162 49 158 l32 -3 3 -95z m-38591
-342 c16 -20 25 -272 11 -286 -18 -18 -56 -14 -68 7 -11 21 -14 273 -3 284 11
12 50 8 60 -5z m38550 -349 c13 -13 6 -237 -8 -276 -9 -25 -47 -31 -67 -11
-13 13 -5 251 10 281 10 19 48 23 65 6z m-38516 -445 c5 -15 8 -84 7 -153 l-3
-126 -32 -3 c-39 -4 -39 -2 -48 156 -7 133 -2 152 41 152 17 0 28 -8 35 -26z
m38474 -344 c9 -27 -5 -250 -17 -272 -10 -21 -51 -24 -66 -5 -11 13 0 237 14
279 8 26 61 25 69 -2z m-38458 -422 c6 -7 13 -71 17 -142 6 -113 4 -131 -10
-147 -22 -24 -29 -24 -54 1 -18 18 -20 33 -20 154 0 98 3 136 13 139 22 10 44
7 54 -5z m38401 -355 c12 -22 -6 -263 -20 -280 -15 -19 -56 -16 -66 5 -10 19
8 260 21 280 12 18 55 15 65 -5z m-38368 -439 c6 -14 10 -81 10 -149 0 -114
-2 -125 -20 -135 -13 -7 -26 -7 -39 -1 -16 9 -19 28 -25 146 -8 148 -3 165 40
165 17 0 28 -8 34 -26z m38295 -328 c17 -12 18 -20 6 -147 -7 -73 -17 -139
-23 -146 -14 -18 -43 -16 -58 3 -20 23 3 274 27 292 21 15 25 15 48 -2z
m-38278 -438 c6 -7 13 -72 17 -144 6 -114 4 -134 -9 -148 -22 -22 -41 -20 -59
6 -20 29 -23 267 -4 286 16 16 43 15 55 0z m38207 -344 c9 -8 16 -18 16 -22
-2 -64 -31 -256 -40 -267 -16 -19 -44 -19 -59 -1 -10 11 -10 43 0 138 14 154
38 197 83 152z m-38184 -434 c12 -7 15 -36 15 -151 0 -124 -2 -143 -17 -153
-13 -8 -23 -8 -35 0 -15 9 -19 34 -26 140 -5 82 -4 137 2 152 11 23 36 28 61
12z m38094 -336 c11 -4 16 -19 16 -48 0 -42 -16 -194 -25 -232 -6 -27 -30 -37
-56 -24 -23 13 -24 47 -7 188 14 119 24 135 72 116z m-38067 -446 c6 -7 13
-71 17 -143 6 -104 4 -134 -7 -149 -18 -25 -62 -15 -71 16 -11 43 -7 263 6
276 16 16 43 15 55 0z m37990 -344 c6 -16 -12 -211 -24 -262 -7 -28 -49 -40
-70 -19 -13 13 -13 28 1 141 9 69 19 132 22 141 8 21 63 20 71 -1z m-37931
-454 c19 -39 52 -247 42 -265 -11 -18 -52 -20 -66 -2 -5 6 -20 69 -33 139 -19
107 -21 129 -9 143 18 22 52 15 66 -15z m37825 -316 c19 -23 -14 -273 -38
-291 -21 -16 -25 -16 -48 1 -19 13 -19 17 -2 147 10 73 22 138 28 146 15 18
44 16 60 -3z m-37643 -426 c20 -25 102 -246 96 -261 -7 -20 -32 -29 -55 -22
-17 6 -86 163 -104 238 -12 45 35 78 63 45z m37523 -338 c24 -13 24 -41 3
-169 -17 -104 -34 -141 -63 -141 -41 0 -44 21 -20 161 20 114 36 159 55 159 3
0 14 -5 25 -10z m-37128 -470 c37 -60 67 -118 67 -129 0 -25 -34 -45 -56 -33
-8 4 -44 55 -79 112 -79 125 -84 160 -26 160 22 0 36 -17 94 -110z m36945
-312 c2 -17 -17 -70 -52 -143 -52 -109 -57 -116 -82 -113 -53 6 -52 27 5 150
65 136 67 140 100 136 20 -2 27 -9 29 -30z m-36475 -305 c70 -76 87 -101 85
-122 -3 -22 -8 -26 -34 -26 -26 0 -44 14 -117 94 -86 93 -98 116 -75 139 27
27 54 11 141 -85z m36075 -345 c24 -24 11 -55 -58 -140 -86 -107 -106 -123
-135 -104 -11 7 -21 20 -23 28 -2 13 49 81 148 196 30 34 48 40 68 20z
m-35495 -178 c105 -79 122 -101 95 -128 -20 -20 -42 -14 -104 30 -108 76 -154
119 -154 142 0 59 42 48 163 -44z m650 -395 c128 -61 150 -82 117 -115 -22
-22 -20 -23 -149 37 -103 47 -131 67 -131 93 0 19 19 40 36 40 6 0 63 -25 127
-55z m34298 14 c18 -18 19 -23 6 -42 -20 -31 -198 -156 -222 -157 -26 0 -45
18 -45 42 0 9 21 32 48 49 26 18 76 54 111 81 35 26 68 48 72 48 5 0 18 -9 30
-21z m-33481 -312 c37 -10 46 -18 48 -38 5 -45 -19 -54 -95 -35 -157 39 -202
56 -209 78 -5 16 -1 27 15 39 22 18 34 16 241 -44z m32818 -99 c4 -34 -13 -45
-142 -93 -104 -38 -132 -41 -150 -12 -19 30 5 48 120 93 128 49 167 52 172 12z
m-32043 -17 c36 -6 40 -10 43 -38 3 -28 -1 -33 -22 -39 -37 -9 -254 12 -271
26 -18 15 -19 42 -2 59 12 12 155 8 252 -8z m823 -29 c16 -21 15 -27 -4 -46
-12 -13 -41 -16 -148 -16 -140 0 -156 5 -156 47 0 38 25 43 165 37 101 -5 133
-10 143 -22z m784 -7 c22 -48 1 -55 -151 -55 -140 0 -161 5 -161 40 0 35 21
40 162 40 137 0 139 0 150 -25z m766 9 c26 -18 28 -37 6 -58 -12 -13 -40 -16
-144 -16 -104 0 -132 3 -144 16 -9 8 -16 22 -16 29 0 7 7 21 16 29 22 23 249
23 282 0z m796 -16 c8 -13 8 -23 0 -35 -10 -16 -30 -18 -149 -21 -141 -3 -165
3 -165 37 0 37 20 42 164 39 119 -3 140 -5 150 -20z m767 12 c11 -6 19 -21 19
-35 0 -37 -28 -45 -161 -45 -100 0 -126 3 -141 17 -22 20 -23 37 -2 57 12 13
40 16 140 16 69 0 134 -5 145 -10z m793 -22 c8 -13 8 -23 0 -35 -10 -16 -31
-18 -152 -21 -133 -2 -142 -1 -152 18 -8 14 -8 26 0 40 10 19 19 20 152 18
121 -3 142 -5 152 -20z m767 12 c11 -6 19 -21 19 -35 0 -37 -28 -45 -155 -45
-64 0 -125 5 -136 10 -21 12 -25 50 -7 68 15 15 251 17 279 2z m797 -34 c2
-16 -2 -32 -10 -37 -21 -14 -272 -11 -286 3 -13 13 -16 51 -5 62 4 3 72 5 152
4 l146 -3 3 -29z m776 12 c19 -27 6 -55 -29 -64 -14 -3 -80 -2 -148 2 -117 9
-122 10 -125 32 -7 46 10 52 154 52 125 0 134 -1 148 -22z m786 -3 c10 -12 10
-21 2 -40 -11 -25 -13 -25 -150 -25 -141 0 -162 5 -162 40 0 35 21 40 161 40
110 0 139 -3 149 -15z m774 -1 c9 -8 16 -21 16 -28 0 -30 -25 -36 -160 -36
-139 0 -160 5 -160 40 0 35 21 40 156 40 107 0 136 -3 148 -16z m790 -16 c8
-13 8 -23 0 -35 -9 -15 -30 -18 -135 -21 -143 -3 -165 0 -174 29 -14 43 8 50
158 47 120 -3 141 -5 151 -20z m776 7 c7 -8 10 -25 6 -40 l-6 -25 -144 0
c-160 0 -180 7 -158 55 11 25 12 25 151 25 110 0 141 -3 151 -15z m783 -2 c11
-7 8 -48 -5 -61 -8 -8 -55 -12 -144 -12 -107 0 -136 3 -148 16 -22 21 -20 40
7 59 19 14 41 15 152 10 72 -4 133 -9 138 -12z m777 -7 c6 -8 10 -25 8 -38 -3
-23 -4 -23 -153 -23 -149 0 -150 0 -153 23 -7 50 -2 52 146 52 110 0 142 -3
152 -14z m771 4 c21 -12 25 -50 7 -68 -17 -17 -269 -17 -286 0 -7 7 -12 21
-12 33 0 40 18 45 148 45 68 0 132 -5 143 -10z m793 -16 c19 -18 19 -20 6 -45
-10 -17 -22 -19 -148 -19 -141 0 -162 5 -162 40 0 35 21 40 156 40 107 0 136
-3 148 -16z m778 -1 c22 -20 23 -37 2 -57 -12 -13 -40 -16 -140 -16 -134 0
-164 8 -164 43 0 42 16 47 154 47 106 0 133 -3 148 -17z m792 -15 c8 -13 8
-23 0 -35 -10 -16 -30 -18 -149 -21 -141 -3 -165 3 -165 37 0 37 20 42 164 39
119 -3 140 -5 150 -20z m770 6 c20 -20 20 -38 0 -59 -14 -14 -37 -16 -151 -13
-105 2 -136 6 -143 18 -14 22 -12 36 6 54 12 13 40 16 144 16 104 0 132 -3
144 -16z m790 -16 c8 -13 8 -23 0 -35 -10 -16 -31 -18 -153 -21 l-141 -3 -12
25 c-8 20 -8 29 2 41 11 13 36 15 153 13 120 -3 141 -5 151 -20z m774 10 c19
-19 14 -56 -9 -68 -13 -8 -62 -9 -150 -4 -110 6 -131 10 -139 25 -13 23 -13
25 6 43 12 13 41 16 148 16 89 0 136 -4 144 -12z m790 -26 c7 -46 -10 -52
-152 -52 -72 0 -136 4 -142 8 -17 11 -22 35 -12 55 8 16 24 17 156 15 145 -3
147 -3 150 -26z m772 14 c6 -8 10 -25 8 -38 -3 -23 -4 -23 -153 -23 -149 0
-150 0 -153 23 -7 46 10 52 153 52 103 0 135 -3 145 -14z m778 -1 c18 -6 15
-62 -4 -69 -30 -12 -269 -7 -282 6 -16 16 -15 55 2 65 14 8 259 6 284 -2z
m786 -11 c19 -18 19 -20 6 -45 -10 -17 -22 -19 -148 -19 -141 0 -162 5 -162
40 0 35 21 40 156 40 107 0 136 -3 148 -16z m783 -6 c17 -14 16 -33 -3 -52
-12 -13 -40 -16 -140 -16 -69 0 -134 5 -145 10 -24 13 -25 55 -1 70 22 14 270
4 289 -12z m787 -10 c8 -13 8 -23 0 -35 -10 -16 -30 -18 -149 -21 -141 -3
-165 3 -165 37 0 37 20 42 164 39 119 -3 140 -5 150 -20z m770 6 c9 -8 16 -23
16 -33 0 -36 -20 -41 -156 -41 -107 0 -136 3 -148 16 -9 8 -16 22 -16 29 0 7
7 21 16 29 12 13 40 16 144 16 104 0 132 -3 144 -16z m790 -16 c8 -13 8 -23 0
-35 -10 -16 -31 -18 -152 -21 -133 -2 -142 -1 -152 18 -8 14 -8 26 0 40 10 19
19 20 152 18 121 -3 142 -5 152 -20z m767 12 c21 -12 25 -50 7 -68 -8 -8 -54
-12 -140 -12 -115 0 -130 2 -148 20 -20 20 -19 29 3 58 12 15 249 17 278 2z
m783 -6 c9 -4 16 -18 16 -34 0 -16 -7 -30 -16 -34 -9 -3 -71 -6 -139 -6 -68 0
-130 3 -139 6 -16 6 -22 54 -9 67 8 9 266 9 287 1z m784 -6 c7 -7 12 -21 12
-33 0 -39 -18 -45 -134 -44 -143 2 -170 8 -174 37 -7 46 10 52 152 52 89 0
136 -4 144 -12z m5463 2 c24 -13 25 -56 2 -69 -25 -13 -239 -34 -269 -27 -21
6 -25 12 -22 39 3 36 5 36 173 55 44 5 84 10 88 11 5 0 17 -4 28 -9z m-4671
-20 c8 -14 8 -26 0 -40 -10 -19 -21 -20 -149 -20 -151 0 -169 6 -157 55 l6 25
145 0 c134 0 145 -1 155 -20z m774 4 c22 -22 20 -41 -7 -59 -19 -12 -47 -13
-155 -8 -128 6 -133 7 -138 30 -12 46 7 53 152 53 107 0 136 -3 148 -16z m790
-16 c8 -13 8 -23 0 -35 -10 -16 -30 -18 -149 -21 -141 -3 -165 3 -165 37 0 37
20 42 164 39 119 -3 140 -5 150 -20z m776 7 c7 -8 10 -25 6 -40 l-6 -25 -143
0 c-146 0 -167 5 -167 40 0 35 21 40 161 40 109 0 139 -3 149 -15z m682 5 c96
0 98 0 104 -25 12 -48 -6 -55 -152 -55 -107 0 -136 3 -148 16 -22 21 -20 40 7
59 15 11 33 14 57 11 19 -3 79 -6 132 -6z m878 -14 c6 -8 10 -25 8 -38 -3 -23
-5 -23 -150 -26 -139 -2 -148 -1 -158 18 -8 14 -8 26 0 40 10 19 21 20 149 20
109 0 141 -3 151 -14z"/>
<path d="M54020 55246 c-343 -127 -634 -504 -706 -916 -24 -141 -15 -372 20
-498 67 -242 192 -412 444 -605 334 -256 734 -462 1602 -827 504 -212 597
-257 644 -312 109 -127 98 -373 -31 -698 -49 -123 -141 -312 -205 -423 -22
-38 -38 -70 -36 -72 1 -2 35 -6 73 -10 l70 -7 43 85 c115 227 272 416 398 478
88 44 182 47 254 10 78 -41 127 -88 160 -154 53 -109 50 -217 -11 -361 -85
-200 -317 -452 -532 -578 -39 -23 -74 -43 -76 -45 -2 -1 -16 -72 -32 -158 -34
-186 -32 -195 48 -225 76 -28 183 -38 328 -28 161 10 295 37 479 99 366 121
545 253 546 399 0 52 -43 135 -100 190 -78 76 -74 103 25 170 205 138 442 364
567 540 84 117 169 286 205 405 23 79 27 107 27 235 1 129 -2 151 -22 202 -70
174 -228 309 -379 324 -44 5 -73 1 -120 -15 -62 -21 -101 -18 -118 9 -3 6 -8
79 -10 163 -7 363 -126 629 -404 908 -311 310 -755 550 -1396 754 -457 145
-716 257 -937 404 -168 111 -328 272 -403 406 -51 90 -86 98 -145 34 -64 -70
-107 -55 -149 52 -15 38 -31 60 -47 68 -30 13 -29 13 -74 -3z"/>
<path d="M56467 47290 c-4 -35 -7 -91 -7 -125 l0 -63 -62 -11 c-265 -44 -812
-104 -1218 -132 -223 -15 -745 -15 -900 0 -242 24 -405 63 -527 125 -49 24
-53 29 -53 61 0 44 16 44 -305 5 -601 -72 -1061 -135 -1135 -156 -117 -33
-208 -91 -321 -204 -447 -445 -794 -1511 -1048 -3215 -60 -404 -151 -1188
-139 -1200 6 -6 430 -93 8268 -1693 l435 -88 7 125 c4 69 10 207 14 305 l6
179 185 -279 c800 -1211 1494 -2446 1964 -3497 54 -121 99 -220 101 -222 6 -7
2233 1084 2242 1099 13 19 -28 276 -104 656 -310 1548 -929 3148 -1828 4725
-644 1130 -1447 2270 -2225 3157 -104 119 -136 150 -166 158 -781 217 -1673
329 -2787 347 l-391 6 -6 -63z"/>
<path d="M59044 26458 c8 -18 62 -136 121 -263 59 -126 117 -252 130 -280 12
-27 118 -257 235 -510 2869 -6217 4688 -10560 5149 -12292 15 -55 55 -101 108
-124 39 -17 56 -18 181 -9 426 31 906 127 1098 220 66 32 113 82 147 158 40
90 36 113 -161 902 -1096 4382 -2228 8402 -3243 11516 l-72 222 -51 5 c-28 3
-388 51 -801 107 -1092 146 -2843 380 -2850 380 -3 0 1 -15 9 -32z"/>
<path d="M56556 12049 c-828 -305 -1851 -860 -2956 -1604 -378 -254 -526 -360
-547 -392 -9 -14 -19 -51 -21 -82 -3 -46 0 -62 20 -90 40 -60 68 -73 165 -82
218 -19 1190 -8 1852 21 209 10 247 14 258 28 9 12 13 46 12 107 l-2 90 -106
6 c-78 4 -43 6 129 7 499 4 1034 29 1355 63 696 72 1184 227 1394 442 l43 45
-17 133 c-63 502 -181 962 -330 1287 l-39 84 -18 -47 c-40 -103 -110 -175
-204 -211 -38 -14 -73 -16 -256 -11 -182 4 -222 8 -271 26 -107 38 -194 121
-229 218 -7 18 -19 33 -28 33 -8 -1 -100 -32 -204 -71z"/>
<path d="M66166 11798 c-3 -7 -10 -37 -16 -65 -14 -63 -71 -154 -128 -205 -89
-80 -177 -108 -410 -129 -242 -21 -341 0 -436 94 -55 55 -82 107 -105 200
l-18 72 -31 -130 c-49 -206 -106 -502 -172 -896 -68 -403 -71 -463 -30 -572
47 -126 167 -240 295 -282 49 -16 85 -20 200 -18 300 3 605 16 599 24 -3 5 0
9 7 9 10 0 10 3 1 12 -13 13 -17 32 -4 25 4 -3 6 37 4 89 -3 73 0 94 10 94 7
0 126 5 263 10 138 6 418 17 623 24 206 8 376 17 379 20 17 17 -35 129 -164
356 -264 462 -545 944 -586 1005 -41 62 -187 213 -245 253 -24 18 -33 20 -36
10z"/>
</g>
</svg>
